<svg width="20" height="20" viewBox="0 0 20 20" fill="none" xmlns="http://www.w3.org/2000/svg">
<path d="M17.9001 10.3406C17.9903 10.1957 18.0199 10.0211 17.9824 9.85459C17.945 9.68808 17.8436 9.54299 17.7001 9.4506L8.20012 3.1306C8.08132 3.05466 7.94417 3.01236 7.80324 3.00816C7.66231 3.00396 7.52287 3.038 7.39976 3.10673C7.27666 3.17546 7.17448 3.2763 7.10411 3.39848C7.03374 3.52065 6.99779 3.6596 7.00011 3.80058V10.3406L12.2501 11.3406L17.9001 10.3406Z" fill="#E8467C"/>
<path d="M7.00011 10V16.19C6.99779 16.331 7.03374 16.4699 7.10411 16.5921C7.17448 16.7143 7.27666 16.8151 7.39976 16.8839C7.52287 16.9526 7.66231 16.9867 7.80324 16.9825C7.94417 16.9783 8.08132 16.9359 8.20012 16.86L17.7001 10.54C17.7923 10.4833 17.8683 10.4038 17.9208 10.3093C17.9734 10.2147 18.0007 10.1082 18.0001 10H7.00011Z" fill="#BC1948"/>
<path d="M4.66087 6.06921L9.80085 9.6192C9.86272 9.66141 9.91335 9.71808 9.94834 9.7843C9.98333 9.85052 10.0016 9.92431 10.0016 9.9992C10.0016 10.0741 9.98333 10.1479 9.94834 10.2141C9.91335 10.2803 9.86272 10.337 9.80085 10.3792L4.66087 13.9292C4.59391 13.9718 4.51647 13.9951 4.43711 13.9964C4.35776 13.9977 4.27958 13.977 4.21125 13.9366C4.14292 13.8963 4.0871 13.8378 4.04997 13.7676C4.01283 13.6975 3.99584 13.6184 4.00086 13.5392V6.45923C3.99584 6.38002 4.01283 6.30092 4.04997 6.23077C4.0871 6.16063 4.14292 6.10214 4.21125 6.06177C4.27958 6.02139 4.35776 6.0007 4.43711 6.00201C4.51647 6.00332 4.59391 6.0266 4.66087 6.06921Z" fill="#8C193F"/>
</svg>
